<?xml version="1.0" ?><svg height="16" id="svg8" version="1.1" viewBox="0 0 16.933333 16.933333" width="16" xmlns="http://www.w3.org/2000/svg" xmlns:cc="http://creativecommons.org/ns#" xmlns:dc="http://purl.org/dc/elements/1.1/" xmlns:inkscape="http://www.inkscape.org/namespaces/inkscape" xmlns:rdf="http://www.w3.org/1999/02/22-rdf-syntax-ns#" xmlns:sodipodi="http://sodipodi.sourceforge.net/DTD/sodipodi-0.dtd" xmlns:svg="http://www.w3.org/2000/svg"><defs id="defs2"/><g id="layer2"><path d="m 8.4635358,1.0583557 c -0.14605,0.0014 -0.2634192,0.12104 -0.2619991,0.267167 v 1.588017 c -0.008,0.3607009 0.537156,0.3607009 0.5291671,0 v -1.588017 c 9.988e-4,-0.148149 -0.1190982,-0.268606 -0.267168,-0.267167 z m 3.5811782,0.955497 c -0.01,-2.05e-4 -0.01966,2.06e-4 -0.02946,10e-4 -0.0871,0.0079 -0.164196,0.05843 -0.206706,0.134876 l -0.792716,1.37511 c -0.18712,0.3089732 0.286447,0.580959 0.458887,0.2635492 l 0.792199,-1.3730432 c 0.10564,-0.174752 -0.0181,-0.398279 -0.222208,-0.401525 z m -7.1577032,10e-4 c -0.201,0.0075 -0.3204821,0.2278889 -0.2170411,0.4004919 l 0.792716,1.3730432 c 0.17854,0.2948318 0.6234469,0.03932 0.4588869,-0.2635492 L 5.1267887,2.1497316 C 5.0783887,2.0634917 4.9858208,2.0114677 4.8870108,2.0148567 Z m 3.585827,1.4278199 c -2.3354199,0 -4.2405681,1.9150409 -4.2405681,4.2679561 0,1.0992839 0.5937822,2.1343919 1.1560022,3.0483913 0.5622297,0.914003 1.0774539,1.411799 1.0774539,1.67535 -5.821e-4,0.15211 0.124958,0.266178 0.2718179,0.265617 H 10.20865 c 0.14169,5.29e-4 0.261009,-0.118684 0.260449,-0.265617 0,-0.263551 0.497864,-0.74484 1.080554,-1.676384 0.56905,-0.9097574 1.150318,-1.9480734 1.150318,-3.0473573 0,-2.3529141 -1.891714,-4.2679561 -4.2271332,-4.2679561 z m -6.200138,1.1854611 c -0.2655701,0.014401 -0.3541391,0.359292 -0.115239,0.4991939 l 1.370459,0.791166 C 3.8194996,6.0859275 4.1040937,5.6477005 3.7956038,5.4647745 L 2.4251448,4.6653407 c -0.0459,-0.02753 -0.0991,-0.04051 -0.152445,-0.03721 z m 12.3465332,0 c -0.0345,0.0042 -0.06991,0.01601 -0.104386,0.03721 l -1.374076,0.793233 c -0.30571,0.1760681 -0.0422,0.634954 0.263549,0.458887 l 1.376144,-0.793233 c 0.28894,-0.178173 0.08041,-0.5256001 -0.161231,-0.496094 z M 7.9374698,4.7624926 h 1.05885 c 0.146321,-5.557e-4 0.2653268,0.117744 0.2656168,0.264066 l 5.292e-4,0.542603 c 0.04041,0.015581 0.09021,0.0374 0.129708,0.05529 l 0.3849891,-0.38344 c 0.1052801,-0.104662 0.2698951,-0.102598 0.3731051,0 l 0.747758,0.7462081 c 0.103979,0.1034449 0.103979,0.271726 0,0.3751709 l -0.382923,0.383956 c 0.0175,0.03928 0.03854,0.08949 0.05374,0.129708 h 0.544152 c 0.146111,5.82e-4 0.26411,0.1194969 0.26355,0.265617 v 1.0562659 c -2.91e-4,0.145515 -0.11804,0.263484 -0.26355,0.264066 h -0.543119 c -0.0152,0.04023 -0.03624,0.09094 -0.05374,0.130225 l 0.383957,0.3865402 c 0.1037,0.1033869 0.102079,0.2702329 -0.0016,0.3736199 l -0.747758,0.7462064 c -0.10321,0.102598 -0.2698943,0.102598 -0.3731043,0 L 9.3937364,9.7156746 c -0.03947,0.01789 -0.09137,0.03816 -0.1317752,0.05374 v 0.5420844 c 5.557e-4,0.146928 -0.1186868,0.266173 -0.2656168,0.265617 h -1.05885 C 7.7913743,10.576534 7.6733953,10.457619 7.6739443,10.311499 V 9.7683816 c -0.04026,-0.01525 -0.09196,-0.03621 -0.131258,-0.05374 L 7.1582142,10.098595 c -0.1033899,0.103629 -0.2712738,0.103629 -0.374654,0 L 6.0352853,9.3523886 c -0.1036299,-0.103387 -0.1036299,-0.271268 0,-0.3746539 L 6.4202744,8.5932625 c -0.017899,-0.0394 -0.04021,-0.09089 -0.05581,-0.131259 H 5.8223782 C 5.6760483,8.4625592 5.5570514,8.3442595 5.5567614,8.1979375 V 7.1416716 C 5.5562058,6.9947427 5.6754482,6.8754997 5.8223782,6.8760546 h 0.5431192 c 0.0156,-0.04011 0.03594,-0.09055 0.05374,-0.129708 L 6.0352813,6.3623906 c -0.1039699,-0.1034449 -0.1039699,-0.271726 0,-0.3751709 l 0.748275,-0.7462081 c 0.1033801,-0.1036299 0.271264,-0.1036299 0.3746539,0 l 0.3855062,0.3834389 c 0.03922,-0.017499 0.09002,-0.03904 0.1302239,-0.05426 V 5.0265547 c 2.91e-4,-0.1455151 0.1180401,-0.263484 0.2635501,-0.2640661 z m 0.266134,0.5296831 v 0.4702558 c -5.027e-4,0.11904 -0.08045,0.2230882 -0.1953371,0.2542472 -0.1354701,0.03719 -0.2646658,0.09133 -0.387056,0.160197 -0.1036399,0.05911 -0.2340269,0.04154 -0.3183271,-0.04289 l -0.3317629,-0.332279 -0.373104,0.373104 0.3317631,0.333829 c 0.0844,0.0843 0.1019908,0.2146829 0.04289,0.3183271 -0.06984,0.1218168 -0.1236472,0.2519809 -0.1617472,0.3870568 -0.03271,0.1132531 -0.1363779,0.1912131 -0.254249,0.1912022 h -0.470772 v 0.5271 h 0.4707721 c 0.1186,3.175e-4 0.2225479,0.07951 0.2542482,0.1937869 0.03813,0.1350759 0.09195,0.264722 0.1617469,0.3865391 0.0591,0.1036439 0.04151,0.2340268 -0.04289,0.3183268 l -0.3317621,0.3338301 0.373104,0.373104 0.3317629,-0.3317629 c 0.08381,-0.08512 0.214236,-0.1035391 0.3183271,-0.04496 0.1223801,0.06887 0.2515859,0.1230069 0.387056,0.160197 0.1154401,0.03132 0.1955171,0.1361829 0.1953371,0.2557981 v 0.4707701 h 0.529167 V 9.5792516 c 2.5e-4,-0.118456 0.0792,-0.2223079 0.1932688,-0.2542479 0.1354402,-0.03808 0.2644201,-0.09199 0.3865401,-0.1617482 0.1032,-0.05964 0.2335271,-0.04292 0.3183271,0.04082 l 0.334346,0.333831 0.3731052,-0.373104 -0.33228,-0.3317629 c -0.0834,-0.08396 -0.1008922,-0.213111 -0.04289,-0.3162599 0.06899,-0.1223682 0.122997,-0.2537092 0.160197,-0.3891232 0.03112,-0.114707 0.134881,-0.1945958 0.253731,-0.1953369 h 0.472839 v -0.5271 h -0.472839 c -0.11827,-4.762e-4 -0.221831,-0.07938 -0.253731,-0.1932699 -0.03717,-0.1354042 -0.0912,-0.266233 -0.1601983,-0.3886062 -0.0583,-0.1032719 -0.04081,-0.232727 0.04289,-0.3167769 L 10.338357,6.1748045 9.9652518,5.8017007 9.6309057,6.1339796 c -0.08431,0.08443 -0.214677,0.1020021 -0.318327,0.04289 C 9.1904586,6.1070997 9.0614687,6.0526757 8.9260388,6.0146067 8.8121688,5.9827265 8.7332497,5.8791387 8.7327697,5.7608747 V 5.2921696 Z m 0.2635499,1.320333 c 0.5813391,0 1.0583331,0.477021 1.0583331,1.058333 0,0.5813129 -0.476994,1.0588498 -1.0583331,1.0588498 -0.5813499,0 -1.05885,-0.477538 -1.05885,-1.0588498 10e-6,-0.581312 0.4775001,-1.058333 1.05885,-1.058333 z m 0,0.5291669 c -0.29542,-1.1e-6 -0.5296839,0.2338901 -0.5296839,0.5291661 0,0.2952758 0.2342639,0.5291669 0.5296839,0.5291669 0.2954099,0 0.5291661,-0.2338911 0.5291661,-0.5291669 0,-0.295276 -0.2337562,-0.5291661 -0.5291661,-0.5291661 z m -7.156669,1.057299 c -0.35285992,0.01696 -0.32751892,0.5466469 0.02532,0.529684 h 1.5875001 c 0.3427,9.39e-5 0.3323699,-0.5295929 0,-0.529684 H 1.3358047 c -0.008,-3.968e-4 -0.01692,-3.968e-4 -0.02532,0 z m 12.6855313,0 c -0.32762,0.03296 -0.322749,0.516413 0.02687,0.529684 h 1.5875 c 0.35304,9.71e-5 0.35304,-0.5295871 0,-0.529684 h -1.5875 c -0.009,-4.497e-4 -0.01787,-4.497e-4 -0.02687,0 z M 13.25911,10.970898 c -0.26533,0.01486 -0.345545,0.368036 -0.112655,0.496093 l 1.372526,0.794784 c 0.32882,0.175417 0.553597,-0.298222 0.267167,-0.458887 l -1.375626,-0.7953 c -0.038,-0.02247 -0.08101,-0.03508 -0.125057,-0.03669 -0.009,-4.5e-4 -0.01755,-4.5e-4 -0.02635,0 z m -9.6252532,0.0031 c -0.0339,0.0035 -0.069,0.01398 -0.103869,0.03256 l -1.370976,0.791165 c -0.3172801,0.185969 -0.05831,0.635951 0.266133,0.461988 L 3.7997376,11.46699 c 0.2569512,-0.203675 0.0714,-0.517351 -0.1658808,-0.492992 z m 3.2416628,2.255158 c -0.3448399,0.0077 -0.3448399,0.521489 0,0.529167 h 3.1744834 c 0.35511,-0.0079 0.35653,-0.521228 0,-0.529167 z m 0.2428791,1.058334 c -0.3290898,0.04515 -0.320329,0.512499 0.025321,0.529683 h 2.6448001 c 0.3529502,0 0.3529502,-0.529683 0,-0.529683 H 7.1437193 c -0.008,-3.97e-4 -0.01692,-3.97e-4 -0.025321,0 z m 0.5498369,1.058333 c -0.3448698,0.0076 -0.3448698,0.521518 0,0.529167 h 1.5926681 c 0.3448701,-0.0076 0.3448701,-0.521518 0,-0.529167 z" id="path2001" style="fill:#3A76FF;stroke:none;stroke-width:0.26458332px;stroke-linecap:butt;stroke-linejoin:miter;stroke-opacity:1"/></g></svg>